<mxfile host="app.diagrams.net" modified="2023-04-29T16:46:46.585Z" agent="Mozilla/5.0 (Windows NT 10.0; Win64; x64) AppleWebKit/537.36 (KHTML, like Gecko) Chrome/112.0.0.0 Safari/537.36" etag="vbN7Vaq61PkrN9FWm-Bb" version="21.2.3" type="github">
  <diagram id="C5RBs43oDa-KdzZeNtuy" name="Page-1">
    <mxGraphModel dx="1100" dy="647" grid="1" gridSize="10" guides="0" tooltips="1" connect="1" arrows="1" fold="1" page="1" pageScale="1" pageWidth="827" pageHeight="1169" math="0" shadow="0">
      <root>
        <mxCell id="WIyWlLk6GJQsqaUBKTNV-0" />
        <mxCell id="WIyWlLk6GJQsqaUBKTNV-1" parent="WIyWlLk6GJQsqaUBKTNV-0" />
        <mxCell id="yMNnYsmY4ad9jijK5Zf2-32" value="Fact.FSL_FactSales" style="swimlane;fontStyle=0;align=center;verticalAlign=top;childLayout=stackLayout;horizontal=1;startSize=26;horizontalStack=0;resizeParent=1;resizeLast=0;collapsible=1;marginBottom=0;rounded=1;shadow=0;strokeWidth=1;fillStyle=auto;fillColor=#cdeb8b;strokeColor=#36393d;" parent="WIyWlLk6GJQsqaUBKTNV-1" vertex="1">
          <mxGeometry x="280" y="200" width="240" height="660" as="geometry">
            <mxRectangle x="550" y="140" width="160" height="26" as="alternateBounds" />
          </mxGeometry>
        </mxCell>
        <mxCell id="yMNnYsmY4ad9jijK5Zf2-33" value="PK ** FSL_Id" style="text;align=left;verticalAlign=top;spacingLeft=4;spacingRight=4;overflow=hidden;rotatable=0;points=[[0,0.5],[1,0.5]];portConstraint=eastwest;" parent="yMNnYsmY4ad9jijK5Zf2-32" vertex="1">
          <mxGeometry y="26" width="240" height="26" as="geometry" />
        </mxCell>
        <mxCell id="yMNnYsmY4ad9jijK5Zf2-96" value="         FSL_OrederId" style="text;align=left;verticalAlign=top;spacingLeft=4;spacingRight=4;overflow=hidden;rotatable=0;points=[[0,0.5],[1,0.5]];portConstraint=eastwest;rounded=0;shadow=0;html=0;" parent="yMNnYsmY4ad9jijK5Zf2-32" vertex="1">
          <mxGeometry y="52" width="240" height="24" as="geometry" />
        </mxCell>
        <mxCell id="yMNnYsmY4ad9jijK5Zf2-80" value="         FSL_QtyOrdered " style="text;align=left;verticalAlign=top;spacingLeft=4;spacingRight=4;overflow=hidden;rotatable=0;points=[[0,0.5],[1,0.5]];portConstraint=eastwest;rounded=0;shadow=0;html=0;" parent="yMNnYsmY4ad9jijK5Zf2-32" vertex="1">
          <mxGeometry y="76" width="240" height="26" as="geometry" />
        </mxCell>
        <mxCell id="yMNnYsmY4ad9jijK5Zf2-84" value="         FSL_Line " style="text;align=left;verticalAlign=top;spacingLeft=4;spacingRight=4;overflow=hidden;rotatable=0;points=[[0,0.5],[1,0.5]];portConstraint=eastwest;rounded=0;shadow=0;html=0;" parent="yMNnYsmY4ad9jijK5Zf2-32" vertex="1">
          <mxGeometry y="102" width="240" height="26" as="geometry" />
        </mxCell>
        <mxCell id="yMNnYsmY4ad9jijK5Zf2-85" value="         FSL_SequenceNumber " style="text;align=left;verticalAlign=top;spacingLeft=4;spacingRight=4;overflow=hidden;rotatable=0;points=[[0,0.5],[1,0.5]];portConstraint=eastwest;rounded=0;shadow=0;html=0;" parent="yMNnYsmY4ad9jijK5Zf2-32" vertex="1">
          <mxGeometry y="128" width="240" height="26" as="geometry" />
        </mxCell>
        <mxCell id="yMNnYsmY4ad9jijK5Zf2-90" value="         FSL_CostPrice " style="text;align=left;verticalAlign=top;spacingLeft=4;spacingRight=4;overflow=hidden;rotatable=0;points=[[0,0.5],[1,0.5]];portConstraint=eastwest;rounded=0;shadow=0;html=0;" parent="yMNnYsmY4ad9jijK5Zf2-32" vertex="1">
          <mxGeometry y="154" width="240" height="26" as="geometry" />
        </mxCell>
        <mxCell id="yMNnYsmY4ad9jijK5Zf2-91" value="         FSL_Margin" style="text;align=left;verticalAlign=top;spacingLeft=4;spacingRight=4;overflow=hidden;rotatable=0;points=[[0,0.5],[1,0.5]];portConstraint=eastwest;rounded=0;shadow=0;html=0;" parent="yMNnYsmY4ad9jijK5Zf2-32" vertex="1">
          <mxGeometry y="180" width="240" height="26" as="geometry" />
        </mxCell>
        <mxCell id="yMNnYsmY4ad9jijK5Zf2-92" value="         FSL_NetPriceTTC " style="text;align=left;verticalAlign=top;spacingLeft=4;spacingRight=4;overflow=hidden;rotatable=0;points=[[0,0.5],[1,0.5]];portConstraint=eastwest;rounded=0;shadow=0;html=0;" parent="yMNnYsmY4ad9jijK5Zf2-32" vertex="1">
          <mxGeometry y="206" width="240" height="26" as="geometry" />
        </mxCell>
        <mxCell id="yMNnYsmY4ad9jijK5Zf2-93" value="         FSL_NetPriceHT " style="text;align=left;verticalAlign=top;spacingLeft=4;spacingRight=4;overflow=hidden;rotatable=0;points=[[0,0.5],[1,0.5]];portConstraint=eastwest;rounded=0;shadow=0;html=0;" parent="yMNnYsmY4ad9jijK5Zf2-32" vertex="1">
          <mxGeometry y="232" width="240" height="26" as="geometry" />
        </mxCell>
        <mxCell id="yMNnYsmY4ad9jijK5Zf2-46" value="         FSL_GroupCustomerKey" style="text;align=left;verticalAlign=top;spacingLeft=4;spacingRight=4;overflow=hidden;rotatable=0;points=[[0,0.5],[1,0.5]];portConstraint=eastwest;rounded=0;shadow=0;html=0;" parent="yMNnYsmY4ad9jijK5Zf2-32" vertex="1">
          <mxGeometry y="258" width="240" height="26" as="geometry" />
        </mxCell>
        <mxCell id="yMNnYsmY4ad9jijK5Zf2-48" value="         FSL_OrderCustomerKey" style="text;align=left;verticalAlign=top;spacingLeft=4;spacingRight=4;overflow=hidden;rotatable=0;points=[[0,0.5],[1,0.5]];portConstraint=eastwest;rounded=0;shadow=0;html=0;" parent="yMNnYsmY4ad9jijK5Zf2-32" vertex="1">
          <mxGeometry y="284" width="240" height="26" as="geometry" />
        </mxCell>
        <mxCell id="yMNnYsmY4ad9jijK5Zf2-49" value="         FSL_ThirdPartyPayerKey" style="text;align=left;verticalAlign=top;spacingLeft=4;spacingRight=4;overflow=hidden;rotatable=0;points=[[0,0.5],[1,0.5]];portConstraint=eastwest;rounded=0;shadow=0;html=0;" parent="yMNnYsmY4ad9jijK5Zf2-32" vertex="1">
          <mxGeometry y="310" width="240" height="26" as="geometry" />
        </mxCell>
        <mxCell id="yMNnYsmY4ad9jijK5Zf2-51" value="         FSL_CountryOfOrderKey" style="text;align=left;verticalAlign=top;spacingLeft=4;spacingRight=4;overflow=hidden;rotatable=0;points=[[0,0.5],[1,0.5]];portConstraint=eastwest;rounded=0;shadow=0;html=0;" parent="yMNnYsmY4ad9jijK5Zf2-32" vertex="1">
          <mxGeometry y="336" width="240" height="26" as="geometry" />
        </mxCell>
        <mxCell id="yMNnYsmY4ad9jijK5Zf2-56" value="         FSL_DeliveryDateRequestedKey" style="text;align=left;verticalAlign=top;spacingLeft=4;spacingRight=4;overflow=hidden;rotatable=0;points=[[0,0.5],[1,0.5]];portConstraint=eastwest;rounded=0;shadow=0;html=0;" parent="yMNnYsmY4ad9jijK5Zf2-32" vertex="1">
          <mxGeometry y="362" width="240" height="26" as="geometry" />
        </mxCell>
        <mxCell id="yMNnYsmY4ad9jijK5Zf2-58" value="         FSL_OrderDateKey" style="text;align=left;verticalAlign=top;spacingLeft=4;spacingRight=4;overflow=hidden;rotatable=0;points=[[0,0.5],[1,0.5]];portConstraint=eastwest;rounded=0;shadow=0;html=0;" parent="yMNnYsmY4ad9jijK5Zf2-32" vertex="1">
          <mxGeometry y="388" width="240" height="26" as="geometry" />
        </mxCell>
        <mxCell id="yMNnYsmY4ad9jijK5Zf2-70" value="         FSL_OrderStatusKey" style="text;align=left;verticalAlign=top;spacingLeft=4;spacingRight=4;overflow=hidden;rotatable=0;points=[[0,0.5],[1,0.5]];portConstraint=eastwest;rounded=0;shadow=0;html=0;" parent="yMNnYsmY4ad9jijK5Zf2-32" vertex="1">
          <mxGeometry y="414" width="240" height="26" as="geometry" />
        </mxCell>
        <mxCell id="yMNnYsmY4ad9jijK5Zf2-71" value="         FSL_OrderCategoryKey" style="text;align=left;verticalAlign=top;spacingLeft=4;spacingRight=4;overflow=hidden;rotatable=0;points=[[0,0.5],[1,0.5]];portConstraint=eastwest;rounded=0;shadow=0;html=0;" parent="yMNnYsmY4ad9jijK5Zf2-32" vertex="1">
          <mxGeometry y="440" width="240" height="26" as="geometry" />
        </mxCell>
        <mxCell id="yMNnYsmY4ad9jijK5Zf2-72" value="         FSL_OriginSiteKey" style="text;align=left;verticalAlign=top;spacingLeft=4;spacingRight=4;overflow=hidden;rotatable=0;points=[[0,0.5],[1,0.5]];portConstraint=eastwest;rounded=0;shadow=0;html=0;" parent="yMNnYsmY4ad9jijK5Zf2-32" vertex="1">
          <mxGeometry y="466" width="240" height="26" as="geometry" />
        </mxCell>
        <mxCell id="yMNnYsmY4ad9jijK5Zf2-73" value="         FSL_SalesSiteKey" style="text;align=left;verticalAlign=top;spacingLeft=4;spacingRight=4;overflow=hidden;rotatable=0;points=[[0,0.5],[1,0.5]];portConstraint=eastwest;rounded=0;shadow=0;html=0;" parent="yMNnYsmY4ad9jijK5Zf2-32" vertex="1">
          <mxGeometry y="492" width="240" height="26" as="geometry" />
        </mxCell>
        <mxCell id="yMNnYsmY4ad9jijK5Zf2-74" value="         FSL_ShippingSiteKey" style="text;align=left;verticalAlign=top;spacingLeft=4;spacingRight=4;overflow=hidden;rotatable=0;points=[[0,0.5],[1,0.5]];portConstraint=eastwest;rounded=0;shadow=0;html=0;" parent="yMNnYsmY4ad9jijK5Zf2-32" vertex="1">
          <mxGeometry y="518" width="240" height="26" as="geometry" />
        </mxCell>
        <mxCell id="yMNnYsmY4ad9jijK5Zf2-75" value="         FSL_SalesPersonKey" style="text;align=left;verticalAlign=top;spacingLeft=4;spacingRight=4;overflow=hidden;rotatable=0;points=[[0,0.5],[1,0.5]];portConstraint=eastwest;rounded=0;shadow=0;html=0;" parent="yMNnYsmY4ad9jijK5Zf2-32" vertex="1">
          <mxGeometry y="544" width="240" height="26" as="geometry" />
        </mxCell>
        <mxCell id="yMNnYsmY4ad9jijK5Zf2-76" value="         FSL_CompanyKey" style="text;align=left;verticalAlign=top;spacingLeft=4;spacingRight=4;overflow=hidden;rotatable=0;points=[[0,0.5],[1,0.5]];portConstraint=eastwest;rounded=0;shadow=0;html=0;" parent="yMNnYsmY4ad9jijK5Zf2-32" vertex="1">
          <mxGeometry y="570" width="240" height="26" as="geometry" />
        </mxCell>
        <mxCell id="yMNnYsmY4ad9jijK5Zf2-88" value="         FSL_ItemKey " style="text;align=left;verticalAlign=top;spacingLeft=4;spacingRight=4;overflow=hidden;rotatable=0;points=[[0,0.5],[1,0.5]];portConstraint=eastwest;rounded=0;shadow=0;html=0;" parent="yMNnYsmY4ad9jijK5Zf2-32" vertex="1">
          <mxGeometry y="596" width="240" height="26" as="geometry" />
        </mxCell>
        <mxCell id="yMNnYsmY4ad9jijK5Zf2-87" value="" style="line;html=1;strokeWidth=1;align=left;verticalAlign=middle;spacingTop=-1;spacingLeft=3;spacingRight=3;rotatable=0;labelPosition=right;points=[];portConstraint=eastwest;" parent="yMNnYsmY4ad9jijK5Zf2-32" vertex="1">
          <mxGeometry y="622" width="240" height="8" as="geometry" />
        </mxCell>
        <mxCell id="EQ-5b81-tSyEU6pW14HO-0" value="Fact.FSL_FactSales" style="swimlane;fontStyle=0;align=center;verticalAlign=top;childLayout=stackLayout;horizontal=1;startSize=26;horizontalStack=0;resizeParent=1;resizeLast=0;collapsible=1;marginBottom=0;rounded=1;shadow=0;strokeWidth=1;fillStyle=auto;fillColor=#cdeb8b;strokeColor=#36393d;" vertex="1" parent="WIyWlLk6GJQsqaUBKTNV-1">
          <mxGeometry x="20" y="210" width="240" height="90" as="geometry">
            <mxRectangle x="550" y="140" width="160" height="26" as="alternateBounds" />
          </mxGeometry>
        </mxCell>
        <mxCell id="EQ-5b81-tSyEU6pW14HO-14" value="         FSL_DeliveryDateRequestedKey" style="text;align=left;verticalAlign=top;spacingLeft=4;spacingRight=4;overflow=hidden;rotatable=0;points=[[0,0.5],[1,0.5]];portConstraint=eastwest;rounded=0;shadow=0;html=0;" vertex="1" parent="EQ-5b81-tSyEU6pW14HO-0">
          <mxGeometry y="26" width="240" height="26" as="geometry" />
        </mxCell>
        <mxCell id="EQ-5b81-tSyEU6pW14HO-24" value="" style="line;html=1;strokeWidth=1;align=left;verticalAlign=middle;spacingTop=-1;spacingLeft=3;spacingRight=3;rotatable=0;labelPosition=right;points=[];portConstraint=eastwest;" vertex="1" parent="EQ-5b81-tSyEU6pW14HO-0">
          <mxGeometry y="52" width="240" height="8" as="geometry" />
        </mxCell>
      </root>
    </mxGraphModel>
  </diagram>
</mxfile>
